<svg width="22" height="16" viewBox="0 0 22 16" fill="none" xmlns="http://www.w3.org/2000/svg">
<path d="M11.0208 0.5C6.33008 0.5 2.32417 3.61 0.701172 8C2.32417 12.39 6.33008 15.5 11.0208 15.5C15.7116 15.5 19.7175 12.39 21.3405 8C19.7175 3.61 15.7116 0.5 11.0208 0.5ZM11.0208 13C8.43153 13 6.33008 10.76 6.33008 8C6.33008 5.24 8.43153 3 11.0208 3C13.6101 3 15.7116 5.24 15.7116 8C15.7116 10.76 13.6101 13 11.0208 13ZM11.0208 5C9.4635 5 8.20638 6.34 8.20638 8C8.20638 9.66 9.4635 11 11.0208 11C12.5782 11 13.8353 9.66 13.8353 8C13.8353 6.34 12.5782 5 11.0208 5Z" fill="black" fill-opacity="0.54"/>
</svg>
