<svg width="22" height="25" viewBox="0 0 22 25" fill="none" xmlns="http://www.w3.org/2000/svg">
<path d="M21.5178 7.16085V5.64588C21.5178 5.57542 21.4737 5.50496 21.4121 5.46972L12.0228 0.0528481C11.9612 0.0176164 11.8907 0 11.8202 0H10.4198C10.3493 0 10.27 0.0176164 10.2172 0.0528481L0.827945 5.47853C0.766289 5.51376 0.713442 5.56661 0.67821 5.62827L0.0528481 6.71164C0.0176164 6.78211 0 6.85257 0 6.91422V17.5102C0 17.5894 0.0176164 17.6599 0.0528481 17.7127L0.942448 19.2629C0.97768 19.3246 1.03053 19.3774 1.09218 19.4215L10.2084 24.6886C10.27 24.7239 10.3405 24.7415 10.4198 24.7415H11.8202C11.8907 24.7415 11.9612 24.7239 12.0228 24.6886L21.4121 19.2717C21.4737 19.2277 21.5178 19.1661 21.5178 19.0868V17.5806C21.5178 17.5102 21.4737 17.4397 21.4121 17.4045L14.1455 13.2119L12.5601 14.1279L19.8531 18.3469L11.1156 23.3939L2.37814 18.3381L21.4121 7.34581C21.4825 7.30177 21.5178 7.24012 21.5178 7.16085ZM19.8531 6.40336L1.58543 16.9641V6.87018L11.1156 1.36523L19.8531 6.40336Z" fill="black"/>
</svg>
