<svg width="88" height="40" viewBox="0 0 88 40" fill="none" xmlns="http://www.w3.org/2000/svg">
<path d="M29.5178 15.1608V13.6459C29.5178 13.5754 29.4737 13.505 29.4121 13.4697L20.0228 8.05285C19.9612 8.01762 19.8907 8 19.8202 8H18.4198C18.3493 8 18.27 8.01762 18.2172 8.05285L8.82794 13.4785C8.76629 13.5138 8.71344 13.5666 8.67821 13.6283L8.05285 14.7116C8.01762 14.7821 8 14.8526 8 14.9142V25.5102C8 25.5894 8.01762 25.6599 8.05285 25.7127L8.94245 27.2629C8.97768 27.3246 9.03053 27.3774 9.09218 27.4215L18.2084 32.6886C18.27 32.7239 18.3405 32.7415 18.4198 32.7415H19.8202C19.8907 32.7415 19.9612 32.7239 20.0228 32.6886L29.4121 27.2717C29.4737 27.2277 29.5178 27.1661 29.5178 27.0868V25.5806C29.5178 25.5102 29.4737 25.4397 29.4121 25.4045L22.1455 21.2119L20.5601 22.1279L27.8531 26.3469L19.1156 31.3939L10.3781 26.3381L29.4121 15.3458C29.4825 15.3018 29.5178 15.2401 29.5178 15.1608ZM27.8531 14.4034L9.58543 24.9641V14.8702L19.1156 9.36523L27.8531 14.4034Z" fill="black"/>
<path d="M35.0581 20.4544C35.9301 19.829 36.6171 19.327 37.1104 18.9394C37.6036 18.5519 37.9735 18.2172 38.2114 17.9353C38.4492 17.6535 38.5989 17.398 38.6606 17.1602C38.7134 16.9224 38.7486 16.6405 38.7486 16.297V14.8525H35.6483C35.5249 14.8525 35.4545 14.7997 35.4545 14.6852V13.2231C35.4545 13.1086 35.5161 13.0557 35.6483 13.0557H43.8925C44.0158 13.0557 44.0862 13.1086 44.0862 13.2231V14.6852C44.0862 14.7997 44.0246 14.8525 43.8925 14.8525H40.7921V16.297C40.7921 16.7462 40.7657 17.1074 40.7128 17.398L44.2976 20.1813C44.4121 20.2606 44.4209 20.3399 44.3329 20.428L43.364 21.6082C43.3023 21.6963 43.2143 21.7051 43.1174 21.6258L39.8584 19.1508C39.5325 19.5031 39.0745 19.8995 38.5108 20.3311C37.9383 20.7627 37.1808 21.2823 36.2472 21.8901C36.1415 21.9517 36.0622 21.9429 36.0006 21.8725L35.0317 20.6922C34.9348 20.6217 34.9436 20.5337 35.0581 20.4544ZM44.6764 22.7268C45.2841 22.7268 45.8302 22.8149 46.3058 22.9911C46.7815 23.1672 47.1866 23.4138 47.5213 23.7133C47.856 24.0216 48.1115 24.3827 48.2964 24.7967C48.4726 25.2195 48.5607 25.6687 48.5607 26.1707C48.5607 26.664 48.4726 27.122 48.2964 27.5448C48.1203 27.9675 47.8648 28.3287 47.5213 28.6281C47.1866 28.9364 46.7815 29.1742 46.3058 29.3504C45.8302 29.5265 45.2841 29.6146 44.6764 29.6146H42.1661C41.5584 29.6146 41.0123 29.5265 40.5367 29.3504C40.061 29.1742 39.6559 28.9276 39.3212 28.6281C38.9865 28.3199 38.731 27.9587 38.5461 27.5448C38.3699 27.122 38.2818 26.6728 38.2818 26.1707C38.2818 25.6775 38.3699 25.2195 38.5461 24.7967C38.7222 24.3739 38.9776 24.0128 39.3212 23.7133C39.6559 23.405 40.061 23.1672 40.5367 22.9911C41.0123 22.8149 41.5584 22.7268 42.1661 22.7268H44.6764ZM44.7733 27.809C45.2841 27.809 45.7069 27.6593 46.0504 27.3598C46.3939 27.0603 46.5613 26.664 46.5613 26.1707C46.5613 25.6775 46.3939 25.2811 46.0504 24.9817C45.7069 24.6822 45.2841 24.5325 44.7733 24.5325H42.0692C41.5584 24.5325 41.1356 24.6822 40.7921 24.9817C40.4486 25.2811 40.2812 25.6775 40.2812 26.1707C40.2812 26.664 40.4486 27.0603 40.7921 27.3598C41.1356 27.6593 41.5584 27.809 42.0692 27.809H44.7733ZM48.5607 21.4849C48.5607 21.5906 48.5078 21.6523 48.3933 21.6787L46.7374 22.0574C46.6846 22.075 46.6494 22.0574 46.6141 22.0222C46.5789 21.987 46.5701 21.9341 46.5701 21.8725V17.9529H43.6547C43.5313 17.9529 43.4609 17.9001 43.4609 17.7856V16.3147C43.4609 16.2002 43.5225 16.1473 43.6547 16.1473H46.5701V12.5096C46.5701 12.3863 46.6229 12.3159 46.7374 12.3159H48.3933C48.5078 12.3159 48.5607 12.3775 48.5607 12.5096V21.4849Z" fill="black"/>
<path d="M63.2172 28.6634C63.2172 28.7603 63.1643 28.8307 63.0498 28.8572L61.3939 29.2359C61.3411 29.2447 61.3058 29.2359 61.2706 29.2007C61.2354 29.1654 61.2266 29.1126 61.2266 29.0509V25.5454H52.401C52.2777 25.5454 52.2073 25.4925 52.2073 25.378V23.9071C52.2073 23.7926 52.2689 23.7397 52.401 23.7397H53.9776V21.8901H50.1902C50.0669 21.8901 49.9965 21.8372 49.9965 21.7227V20.2606C49.9965 20.1461 50.0581 20.0933 50.1902 20.0933H65.2342C65.3575 20.0933 65.4279 20.1461 65.4279 20.2606V21.7227C65.4279 21.8372 65.3663 21.8901 65.2342 21.8901H61.4468V23.7397H62.1338C62.1954 23.7397 62.2571 23.7662 62.3011 23.819L63.1555 24.735C63.1907 24.7703 63.2083 24.8231 63.2083 24.8848V28.6634H63.2172ZM56.3646 18.9747C55.7568 18.9747 55.2107 18.8954 54.7351 18.728C54.2595 18.5607 53.8543 18.3317 53.5284 18.041C53.2025 17.7504 52.9471 17.4068 52.7798 17.0105C52.6124 16.6141 52.5243 16.1825 52.5243 15.7157C52.5243 15.2489 52.6124 14.8173 52.7798 14.421C52.9471 14.0246 53.2025 13.6811 53.5284 13.3904C53.8543 13.0998 54.2595 12.8708 54.7351 12.7034C55.2107 12.5361 55.7568 12.4568 56.3646 12.4568H59.0686C59.6764 12.4568 60.2225 12.5361 60.6981 12.7034C61.1737 12.8708 61.5789 13.0998 61.9048 13.3904C62.2307 13.6811 62.4861 14.0246 62.6534 14.421C62.8208 14.8173 62.9089 15.2489 62.9089 15.7157C62.9089 16.1825 62.8208 16.6141 62.6534 17.0105C62.4861 17.4068 62.2307 17.7504 61.9048 18.041C61.5789 18.3317 61.1737 18.5607 60.6981 18.728C60.2225 18.8954 59.6764 18.9747 59.0686 18.9747H56.3646ZM59.1567 17.1602C59.6676 17.1602 60.0815 17.0281 60.4162 16.7727C60.7421 16.5084 60.9095 16.1561 60.9095 15.7157C60.9095 15.2753 60.7421 14.923 60.4162 14.6588C60.0815 14.4033 59.6676 14.2712 59.1567 14.2712H56.2677C55.7568 14.2712 55.3429 14.4033 55.0082 14.6588C54.6823 14.923 54.5149 15.2753 54.5149 15.7157C54.5149 16.1561 54.6823 16.5084 55.0082 16.7727C55.3341 17.0369 55.7568 17.1602 56.2677 17.1602H59.1567ZM55.9242 23.7309H59.5002V21.8813H55.9242V23.7309Z" fill="black"/>
<path d="M73.0644 20.4984C73.0644 20.6041 73.0116 20.6658 72.8971 20.6922L71.2412 21.071C71.1883 21.0886 71.1531 21.071 71.1179 21.0357C71.0826 21.0005 71.0738 20.9476 71.0738 20.886V14.8702H65.5865C65.4632 14.8702 65.3927 14.8173 65.3927 14.7028V13.2407C65.3927 13.1262 65.4544 13.0734 65.5865 13.0734H71.2059H71.2412H71.981C72.0427 13.0734 72.1043 13.0998 72.1484 13.1526L73.0028 14.0422C73.038 14.0775 73.0556 14.1303 73.0556 14.192V20.4984H73.0644ZM77.9968 28.8572C77.9968 28.9629 77.944 29.0245 77.8295 29.0509L76.1736 29.4297C76.1208 29.4385 76.0855 29.4297 76.0503 29.3944C76.0151 29.3592 76.0063 29.3064 76.0063 29.2447V24.7262H67.8765C67.7532 24.7262 67.6828 24.6734 67.6828 24.5589V23.0968C67.6828 22.9823 67.7444 22.9294 67.8765 22.9294H76.1384H76.1736H76.9135C76.9751 22.9294 77.0368 22.9559 77.0808 23.0087L77.9352 23.9247C77.9704 23.96 77.988 24.0128 77.988 24.0745V28.8572H77.9968ZM77.9968 21.388C77.9968 21.4937 77.944 21.5554 77.8295 21.5818L76.1736 21.9606C76.1208 21.9694 76.0855 21.9606 76.0503 21.9253C76.0151 21.8901 76.0063 21.8372 76.0063 21.7756V12.5008C76.0063 12.3775 76.0591 12.3071 76.1736 12.3071H77.8295C77.944 12.3071 77.9968 12.3687 77.9968 12.5008V15.4515H80.5071C80.6304 15.4515 80.7009 15.5043 80.7009 15.6188V17.0898C80.7009 17.2043 80.6392 17.2571 80.5071 17.2571H77.9968V21.388Z" fill="black"/>
</svg>
